<mxfile host="app.diagrams.net" agent="Mozilla/5.0 (Macintosh; Intel Mac OS X 10_15_7) AppleWebKit/537.36 (KHTML, like Gecko) Chrome/128.0.0.0 Safari/537.36" version="26.2.7">
  <diagram name="Page-1" id="9sIp-5n2GNJKHpYP2EK1">
    <mxGraphModel dx="1428" dy="831" grid="1" gridSize="10" guides="1" tooltips="1" connect="1" arrows="1" fold="1" page="1" pageScale="1" pageWidth="850" pageHeight="1100" math="0" shadow="0">
      <root>
        <mxCell id="0" />
        <mxCell id="1" parent="0" />
        <mxCell id="oAjYtiPI01rDYrm027HL-4" value="" style="edgeStyle=orthogonalEdgeStyle;rounded=0;orthogonalLoop=1;jettySize=auto;html=1;" edge="1" parent="1" source="oAjYtiPI01rDYrm027HL-1" target="oAjYtiPI01rDYrm027HL-2">
          <mxGeometry relative="1" as="geometry" />
        </mxCell>
        <mxCell id="oAjYtiPI01rDYrm027HL-1" value="START" style="ellipse;whiteSpace=wrap;html=1;" vertex="1" parent="1">
          <mxGeometry x="360" y="50" width="120" height="80" as="geometry" />
        </mxCell>
        <mxCell id="oAjYtiPI01rDYrm027HL-5" value="" style="edgeStyle=orthogonalEdgeStyle;rounded=0;orthogonalLoop=1;jettySize=auto;html=1;" edge="1" parent="1" source="oAjYtiPI01rDYrm027HL-2">
          <mxGeometry relative="1" as="geometry">
            <mxPoint x="420" y="257" as="targetPoint" />
          </mxGeometry>
        </mxCell>
        <mxCell id="oAjYtiPI01rDYrm027HL-2" value="GET TEMPERATURE" style="rounded=0;whiteSpace=wrap;html=1;" vertex="1" parent="1">
          <mxGeometry x="360" y="170" width="120" height="60" as="geometry" />
        </mxCell>
        <mxCell id="oAjYtiPI01rDYrm027HL-9" value="" style="edgeStyle=orthogonalEdgeStyle;rounded=0;orthogonalLoop=1;jettySize=auto;html=1;" edge="1" parent="1" source="oAjYtiPI01rDYrm027HL-6" target="oAjYtiPI01rDYrm027HL-8">
          <mxGeometry relative="1" as="geometry" />
        </mxCell>
        <mxCell id="oAjYtiPI01rDYrm027HL-12" value="YES" style="edgeLabel;html=1;align=center;verticalAlign=middle;resizable=0;points=[];" vertex="1" connectable="0" parent="oAjYtiPI01rDYrm027HL-9">
          <mxGeometry x="-0.1636" y="1" relative="1" as="geometry">
            <mxPoint as="offset" />
          </mxGeometry>
        </mxCell>
        <mxCell id="oAjYtiPI01rDYrm027HL-11" value="NO" style="edgeStyle=orthogonalEdgeStyle;rounded=0;orthogonalLoop=1;jettySize=auto;html=1;" edge="1" parent="1" source="oAjYtiPI01rDYrm027HL-6">
          <mxGeometry relative="1" as="geometry">
            <mxPoint x="420" y="430" as="targetPoint" />
          </mxGeometry>
        </mxCell>
        <mxCell id="oAjYtiPI01rDYrm027HL-6" value="TEMP &amp;lt;20.0?" style="rhombus;whiteSpace=wrap;html=1;" vertex="1" parent="1">
          <mxGeometry x="345" y="260" width="150" height="80" as="geometry" />
        </mxCell>
        <mxCell id="oAjYtiPI01rDYrm027HL-8" value="TURN THE HEATER ON" style="rounded=0;whiteSpace=wrap;html=1;" vertex="1" parent="1">
          <mxGeometry x="610" y="270" width="120" height="60" as="geometry" />
        </mxCell>
        <mxCell id="oAjYtiPI01rDYrm027HL-15" value="" style="edgeStyle=orthogonalEdgeStyle;rounded=0;orthogonalLoop=1;jettySize=auto;html=1;" edge="1" parent="1" source="oAjYtiPI01rDYrm027HL-13" target="oAjYtiPI01rDYrm027HL-14">
          <mxGeometry relative="1" as="geometry" />
        </mxCell>
        <mxCell id="oAjYtiPI01rDYrm027HL-18" value="YES" style="edgeLabel;html=1;align=center;verticalAlign=middle;resizable=0;points=[];" vertex="1" connectable="0" parent="oAjYtiPI01rDYrm027HL-15">
          <mxGeometry x="-0.2235" y="-1" relative="1" as="geometry">
            <mxPoint as="offset" />
          </mxGeometry>
        </mxCell>
        <mxCell id="oAjYtiPI01rDYrm027HL-17" value="" style="edgeStyle=orthogonalEdgeStyle;rounded=0;orthogonalLoop=1;jettySize=auto;html=1;" edge="1" parent="1" source="oAjYtiPI01rDYrm027HL-13" target="oAjYtiPI01rDYrm027HL-16">
          <mxGeometry relative="1" as="geometry" />
        </mxCell>
        <mxCell id="oAjYtiPI01rDYrm027HL-19" value="NO" style="edgeLabel;html=1;align=center;verticalAlign=middle;resizable=0;points=[];" vertex="1" connectable="0" parent="oAjYtiPI01rDYrm027HL-17">
          <mxGeometry x="-0.025" y="1" relative="1" as="geometry">
            <mxPoint as="offset" />
          </mxGeometry>
        </mxCell>
        <mxCell id="oAjYtiPI01rDYrm027HL-13" value="20.0&amp;lt;=TEMP&amp;lt;=25.0" style="rhombus;whiteSpace=wrap;html=1;" vertex="1" parent="1">
          <mxGeometry x="345" y="430" width="150" height="80" as="geometry" />
        </mxCell>
        <mxCell id="oAjYtiPI01rDYrm027HL-14" value="OK" style="rounded=0;whiteSpace=wrap;html=1;" vertex="1" parent="1">
          <mxGeometry x="610" y="440" width="120" height="60" as="geometry" />
        </mxCell>
        <mxCell id="oAjYtiPI01rDYrm027HL-21" value="" style="edgeStyle=orthogonalEdgeStyle;rounded=0;orthogonalLoop=1;jettySize=auto;html=1;" edge="1" parent="1" source="oAjYtiPI01rDYrm027HL-16" target="oAjYtiPI01rDYrm027HL-20">
          <mxGeometry relative="1" as="geometry" />
        </mxCell>
        <mxCell id="oAjYtiPI01rDYrm027HL-22" value="YES" style="edgeLabel;html=1;align=center;verticalAlign=middle;resizable=0;points=[];" vertex="1" connectable="0" parent="oAjYtiPI01rDYrm027HL-21">
          <mxGeometry x="-0.0435" y="-1" relative="1" as="geometry">
            <mxPoint as="offset" />
          </mxGeometry>
        </mxCell>
        <mxCell id="oAjYtiPI01rDYrm027HL-16" value="TEMP&amp;gt;=25.0" style="rhombus;whiteSpace=wrap;html=1;" vertex="1" parent="1">
          <mxGeometry x="345" y="590" width="150" height="80" as="geometry" />
        </mxCell>
        <mxCell id="oAjYtiPI01rDYrm027HL-20" value="TURN ON THE COOLER" style="rounded=0;whiteSpace=wrap;html=1;" vertex="1" parent="1">
          <mxGeometry x="610" y="600" width="120" height="60" as="geometry" />
        </mxCell>
      </root>
    </mxGraphModel>
  </diagram>
</mxfile>
